<?xml version="1.0" encoding="UTF-8" standalone="no"?>
<!-- Created with Inkscape (http://www.inkscape.org/) -->

<svg
   height="1176.4189"
   width="3237.4473"
   sodipodi:docname="unknown_today_02_vectored.svg"
   version="1.1"
   id="svg1"
   inkscape:version="1.3 (0e150ed6c4, 2023-07-21)"
   xmlns:inkscape="http://www.inkscape.org/namespaces/inkscape"
   xmlns:sodipodi="http://sodipodi.sourceforge.net/DTD/sodipodi-0.dtd"
   xmlns="http://www.w3.org/2000/svg"
   xmlns:svg="http://www.w3.org/2000/svg"
   xmlns:rdf="http://www.w3.org/1999/02/22-rdf-syntax-ns#"
   xmlns:cc="http://creativecommons.org/ns#"
   xmlns:dc="http://purl.org/dc/elements/1.1/">
  <sodipodi:namedview
     id="base"
     pagecolor="#ffffff"
     bordercolor="#000000"
     borderopacity="0.3"
     inkscape:pageopacity="0.0"
     inkscape:pageshadow="2"
     inkscape:zoom="0.25"
     inkscape:cx="1668"
     inkscape:cy="372"
     inkscape:document-units="px"
     inkscape:current-layer="layer1"
     showgrid="false"
     showguides="false"
     inkscape:window-width="3840"
     inkscape:window-height="2092"
     inkscape:window-x="0"
     inkscape:window-y="41"
     inkscape:window-maximized="1"
     showborder="true"
     inkscape:showpageshadow="false"
     inkscape:pagecheckerboard="0"
     inkscape:deskcolor="#d1d1d1">
    <sodipodi:guide
       id="guide_baseline"
       inkscape:label="baseline"
       position="41.402344,682.43581"
       orientation="0,1"
       inkscape:locked="false" />
    <sodipodi:guide
       id="guide_ascender"
       inkscape:label="ascender"
       position="41.402344,1374.4359"
       orientation="0,1"
       inkscape:locked="false" />
    <sodipodi:guide
       id="guide_caps"
       inkscape:label="caps"
       position="41.402344,1325.4359"
       orientation="0,1"
       inkscape:locked="false" />
    <sodipodi:guide
       id="guide_xheight"
       inkscape:label="xheight"
       position="41.402344,1158.4359"
       orientation="0,1"
       inkscape:locked="false" />
    <sodipodi:guide
       id="guide_descender"
       inkscape:label="descender"
       position="41.402344,457.43581"
       orientation="0,1"
       inkscape:locked="false" />
  </sodipodi:namedview>
  <defs
     id="defs4" />
  <metadata
     id="metadata7">
    <rdf:RDF>
      <cc:Work
         rdf:about="">
        <dc:format>image/svg+xml</dc:format>
        <dc:type
           rdf:resource="http://purl.org/dc/dcmitype/StillImage" />
      </cc:Work>
    </rdf:RDF>
  </metadata>
  <g
     id="layer1"
     inkscape:groupmode="layer"
     inkscape:label="Layer 1"
     transform="translate(41.402344,-265.00687)">
    <g
       id="text1"
       style="font-size:655.647px;line-height:1.05;font-family:'Major Mono Display';-inkscape-font-specification:'Major Mono Display';letter-spacing:-10px;word-spacing:0px;stroke-width:6.82966"
       aria-label="unknoWn&#10;todAy">
      <path
         id="path2"
         style="text-align:center;text-anchor:middle"
         d="m 2046.3164,265.02539 c -25.4103,0.35986 -50.8073,5.63805 -74.0445,15.99025 -11.8458,5.26625 -23.1521,11.71747 -33.8626,19.0112 -18.4532,12.68041 -34.668,28.60921 -47.643,46.85945 -9.6257,13.40393 -17.4379,28.0979 -23.2135,43.55444 -7.4865,19.94619 -11.4952,41.15856 -12.0679,62.44623 -0.2252,8.03249 -0.057,16.0695 -0.1069,24.10406 0.01,28.57178 -0.031,57.14395 0.044,85.71548 0.4048,25.50446 5.7026,50.97805 15.9812,74.34803 8.1827,18.82076 19.5979,36.17661 33.2607,51.46695 13.7647,15.37453 29.9816,28.53852 47.8119,38.92192 23.8308,13.81212 50.7235,22.26084 78.154,24.69413 19.3284,1.74489 38.9174,0.85283 57.9688,-2.88237 27.2918,-5.39618 53.3974,-16.83879 75.7264,-33.45419 19.3324,-14.21022 35.9398,-32.09707 48.6984,-52.41469 8.0315,-12.69707 14.8906,-26.17598 19.888,-40.35958 6.7051,-18.84636 10.2312,-38.78077 10.731,-58.76693 0.1678,-8.24442 0.031,-16.49152 0.078,-24.73711 -0.011,-28.07492 0.035,-56.15021 -0.044,-84.22487 -0.4247,-25.48348 -5.8408,-50.93192 -16.3212,-74.19037 -5.3234,-11.81659 -11.8068,-23.10147 -19.1542,-33.77295 -13.2839,-19.0896 -30.1244,-35.70556 -49.4748,-48.61748 -9.0486,-6.05198 -18.529,-11.47165 -28.3798,-16.10847 -20.5002,-9.57852 -42.7546,-15.36712 -65.3212,-17.01244 -6.2233,-0.48064 -12.4682,-0.64938 -18.7091,-0.57069 z M -41.402344,276.83594 c 0.0023,96.09515 -0.0078,192.19042 0.02101,288.2855 0.238844,25.12211 5.425603,50.2364 15.582804,73.23691 12.77654,29.12072 32.9455812,54.93917 58.015217,74.49186 19.284663,15.07322 41.438637,26.53371 65.022992,33.14938 21.107651,5.9743 43.265451,8.00483 65.131851,6.53292 14.36594,-0.97013 28.62997,-3.56004 42.37249,-7.87046 13.17346,-4.09993 25.84499,-9.76292 37.755,-16.71995 16.40989,-9.47994 31.57937,-21.17101 44.61375,-34.94765 21.96063,-23.108 38.12907,-51.77306 46.05138,-82.68142 4.17265,-16.17658 6.06138,-32.9105 5.9003,-49.60756 0.0181,-95.28984 0.003,-190.57969 0.008,-285.86953 -12.08659,0 -24.17318,0 -36.25977,0 -0.002,96.67574 0.007,193.35163 -0.0229,290.02729 -0.0258,2.50653 -0.12014,4.98363 -0.2605,7.4264 -0.77969,13.71305 -3.42355,27.32476 -7.93734,40.30021 -0.64285,1.85096 -1.3825,3.87978 -2.13422,5.77394 -6.70072,16.85551 -16.40774,32.495 -28.38199,46.11 -10.83983,12.32991 -23.7268,22.81186 -37.8334,31.18833 -1.32127,0.78161 -2.84475,1.65611 -4.26693,2.43618 -9.94712,5.48716 -20.49926,9.89578 -31.43424,12.98765 -1.27672,0.35834 -2.78532,0.76257 -4.16236,1.10371 -3.84571,0.96827 -7.77051,1.78451 -11.61315,2.43052 -2.72898,0.45537 -5.346,0.82168 -8.11674,1.1316 -7.53237,0.84002 -15.12422,1.13427 -22.69955,0.91034 -1.6589,-0.0543 -3.53594,-0.13111 -5.27706,-0.24716 -4.82407,-0.29455 -9.69506,-0.82589 -14.38114,-1.56339 -3.87749,-0.61579 -7.7175,-1.37721 -11.58146,-2.31188 -5.41058,-1.29975 -11.01723,-3.00212 -16.21347,-4.91273 C 80.548078,701.7601 65.677039,693.10466 52.429824,682.48633 51.891291,682.04815 51.127287,681.43278 50.573992,680.96624 45.481318,676.75045 40.593311,672.08455 36.15248,667.30078 24.70441,654.9461 15.264253,640.74747 8.2286516,625.44727 c -0.8759608,-1.91494 -1.7892273,-4.02745 -2.5979481,-6.05374 -1.3464238,-3.35037 -2.520273,-6.57 -3.6256744,-10.02213 -2.77291902,-8.62286 -4.7239814,-17.50514 -5.8877056,-26.48663 -0.090266,-0.81611 -0.2349079,-1.91486 -0.3345867,-2.84352 -0.208491,-1.99337 -0.4039381,-4.05999 -0.5256669,-5.96272 -0.110512,-1.48162 -0.1763685,-2.96571 -0.2471683,-4.44962 -0.030596,-1.01381 -0.087278,-2.29594 -0.1003802,-3.41477 -0.1209014,-9.38915 -0.016371,-18.77953 -0.051963,-28.16922 0,-87.73633 0,-175.47265 0,-263.20898 -12.0865884,0 -24.1731764,0 -36.2597654,0 0,0.66666 0,1.33333 0,2 z m 481.080074,0 c 0,155.44336 0,310.88672 0,466.33008 12.08594,0 24.17188,0 36.25782,0 0,-138.87566 0,-277.75131 0,-416.62696 102.65234,100.12891 205.30468,200.25782 307.95703,300.38672 0,38.74675 0,77.49349 0,116.24024 12.08594,0 24.17187,0 36.25781,0 0,-156.11003 0,-312.22006 0,-468.33008 -12.08594,0 -24.17187,0 -36.25781,0 0,100.42448 0,200.84896 0,301.27344 C 680.48815,475.68503 577.08479,375.25959 473.67969,274.83594 c -11.33399,0 -22.66797,0 -34.00196,0 0,0.66666 0,1.33333 0,2 z m 483.04688,0 c 0,155.44336 0,310.88672 0,466.33008 12.08594,0 24.17187,0 36.25781,0 0,-38.98112 0,-77.96224 0,-116.94336 42.98568,-42.98568 85.97138,-85.97136 128.95708,-128.95704 58.6721,81.9666 117.3421,163.93478 176.0156,245.9004 14.5306,0 29.0612,0 43.5918,0 -64.6545,-90.51135 -129.3058,-181.02491 -193.959,-271.53711 65.8242,-65.59767 131.6485,-131.19524 197.4726,-196.79297 -17.0325,0 -34.0651,0 -51.0976,0 -100.3256,100.11712 -200.6539,200.23156 -300.98048,300.34765 0,-100.11588 0,-200.23177 0,-300.34765 -12.08594,0 -24.17187,0 -36.25781,0 0,0.66666 0,1.33333 0,2 z m 467.31059,0 c 0,155.44336 0,310.88672 0,466.33008 12.0859,0 24.1718,0 36.2578,0 0,-138.87566 0,-277.75131 0,-416.62696 102.6523,100.12891 205.3047,200.25781 307.957,300.38672 0,38.74675 0,77.49349 0,116.24024 12.0859,0 24.1719,0 36.2578,0 0,-156.11003 0,-312.22006 0,-468.33008 -12.0859,0 -24.1719,0 -36.2578,0 0,100.42448 0,200.84896 0,301.27344 -103.4044,-100.42435 -206.8078,-200.84979 -310.2129,-301.27344 -11.334,0 -22.668,0 -34.0019,0 0,0.66666 0,1.33333 0,2 z m 911.1836,0.51758 c 41.7154,155.27122 83.434,310.54192 125.1523,465.8125 11.5898,0 23.1797,0 34.7695,0 21.1971,-78.87146 42.3918,-157.74354 63.5879,-236.61524 21.1962,78.8717 42.3909,157.74378 63.5879,236.61524 11.5892,0 23.1784,0 34.7676,0 41.9442,-156.10979 83.8887,-312.21953 125.8301,-468.33008 -95.4779,0 -190.9558,0 -286.4336,0 14.5245,54.01225 29.0481,108.02476 43.5722,162.03711 -20.8691,77.31445 -41.7382,154.6289 -62.6074,231.94336 -35.1866,-131.32689 -70.375,-262.6533 -105.5605,-393.98047 -12.4473,0 -24.8946,0 -37.3418,0 0.2252,0.83919 0.4505,1.67838 0.6758,2.51758 z m 514.3515,-0.51758 c 0,155.44336 0,310.88672 0,466.33008 12.0866,0 24.1732,0 36.2598,0 0,-138.87566 0,-277.75131 0,-416.62696 102.6517,100.12891 205.3034,200.25782 307.9551,300.38672 0,38.74675 0,77.49349 0,116.24024 12.0865,0 24.1731,0 36.2597,0 0,-156.11003 0,-312.22006 0,-468.33008 -12.0866,0 -24.1732,0 -36.2597,0 0,100.42448 0,200.84896 0,301.27344 -103.4045,-100.42435 -206.8078,-200.84979 -310.2129,-301.27344 -11.334,0 -22.668,0 -34.002,0 0,0.66666 0,1.33333 0,2 z m -766.0234,24.42383 c 8.0968,0.0217 16.1984,0.56364 24.2051,1.78711 1.8639,0.28835 3.9929,0.64844 5.8409,1.00488 6.794,1.2946 13.6101,3.10289 20.0868,5.30762 9.5251,3.22837 18.7656,7.53407 27.5178,12.61124 7.0926,4.0407 14.0148,8.51792 20.4603,13.59277 12.4814,9.74357 23.3683,21.508 32.1485,34.6832 4.2746,6.42522 8.1466,13.119 11.6601,19.98881 7.683,15.26471 12.6889,31.8666 14.7707,48.82754 0.4901,3.94903 0.8094,7.7496 1.0063,11.73441 0.3839,7.92409 0.1563,15.86007 0.2179,23.78976 -0.01,29.21266 0.035,58.42576 -0.045,87.63812 -0.034,1.82562 -0.093,3.5761 -0.1885,5.33932 -0.2372,4.50595 -0.6452,9.09073 -1.272,13.48036 -1.4418,10.68683 -4.0435,21.21493 -7.7159,31.35353 -1.9776,5.46015 -4.331,10.96123 -6.957,16.21283 -0.7314,1.44901 -1.4924,2.94516 -2.2133,4.28254 -4.7767,8.93416 -10.32,17.46667 -16.6558,25.37572 -1.228,1.52849 -2.6962,3.28855 -4.0157,4.80469 -10.979,12.59911 -24.0288,23.35707 -38.3672,31.92578 -6.6318,3.95068 -13.7244,7.49675 -20.9474,10.42175 -2.3595,0.96278 -4.9221,1.92497 -7.4041,2.78919 -1.5723,0.53508 -3.3534,1.1324 -5.0235,1.64052 -11.842,3.64312 -24.1297,5.78849 -36.4902,6.56456 -0.6942,0.0329 -1.8337,0.0945 -2.5605,0.13476 -6.4096,0.29175 -12.8349,0.22945 -19.2383,-0.17383 -1.9786,-0.13235 -4.1544,-0.30323 -6.2038,-0.51879 -6.9816,-0.7092 -14.0388,-1.91214 -20.7864,-3.52808 -14.729,-3.52417 -28.8338,-9.14518 -41.9266,-16.74619 -15.7439,-9.35911 -29.8744,-21.41927 -41.6301,-35.4628 -1.228,-1.46685 -2.557,-3.11458 -3.7776,-4.68874 -6.2286,-8.09437 -11.8337,-16.66725 -16.2811,-25.90412 -6.5052,-13.22491 -11.1053,-27.38007 -13.662,-41.89346 -0.3966,-2.24063 -0.7641,-4.65598 -1.0684,-6.97657 -0.1558,-1.2242 -0.3389,-2.73603 -0.4623,-3.97598 -0.3429,-3.25446 -0.5965,-6.66199 -0.7466,-9.84042 -0.2845,-7.97517 -0.1602,-15.95801 -0.1859,-23.93672 0.011,-29.07646 -0.04,-58.15335 0.043,-87.22954 0.097,-4.79142 0.3822,-9.52709 0.8754,-14.25952 1.6806,-15.97405 5.845,-31.85776 12.4414,-46.58204 0.8059,-1.78269 1.5749,-3.44257 2.4589,-5.22105 4.1635,-8.46787 9.1181,-16.54055 14.7169,-24.13441 1.546,-2.09967 3.253,-4.30154 4.9488,-6.3721 2.626,-3.20694 5.5533,-6.51975 8.5266,-9.59463 10.6813,-11.12911 23.1129,-20.52258 36.5558,-28.06452 3.357,-1.88179 7.0143,-3.78457 10.6059,-5.48675 17.0842,-8.08657 35.6855,-12.90767 54.5344,-14.25299 2.5128,-0.1899 5.0307,-0.30107 7.5492,-0.37941 1.4408,-0.0327 3.1256,-0.0609 4.6543,-0.0684 z m 652.2578,9.83398 c -31.9336,119.24023 -63.8672,238.48047 -95.8008,357.7207 -23.1169,-85.65397 -46.2469,-171.30459 -69.3289,-256.96785 -9.0225,-33.58429 -18.0451,-67.16857 -27.0676,-100.75285 64.0658,0 128.1315,0 192.1973,0 z" />
      <path
         id="path3"
         style="text-align:center;text-anchor:middle"
         d="m 2042.7324,949.04102 c -74.2035,160.85098 -148.4085,321.70138 -222.6113,482.55278 149.6185,-1e-4 299.237,0 448.8555,0 -74.8083,-162.1639 -149.6188,-324.3268 -224.4278,-486.49028 -0.6054,1.3125 -1.2109,2.625 -1.8164,3.9375 z m -951.7754,4.41406 c -25.3607,0.36019 -50.7095,5.61487 -73.9085,15.93316 -11.9842,5.30662 -23.40599,11.84465 -34.23014,19.22309 -18.30985,12.63627 -34.42026,28.45717 -47.32267,46.58467 -13.6327,18.9383 -23.61161,40.4725 -29.39162,63.0726 -4.12455,15.9839 -6.04429,32.4987 -6.08331,48.9958 0.007,34.4565 -0.0283,68.9134 0.0351,103.3699 0.3508,26.1508 5.84717,52.2832 16.57375,76.1627 8.40676,18.9427 20.09573,36.3705 34.05064,51.6673 14.06869,15.3862 30.61052,28.5018 48.76956,38.7398 23.39229,13.0987 49.59869,21.1113 76.30809,23.4005 18.8572,1.6741 37.9559,0.8022 56.5576,-2.7406 26.3608,-5.0761 51.6456,-15.7857 73.5216,-31.363 16.1491,-11.4253 30.5583,-25.3169 42.4642,-41.1207 7.6163,-10.0786 14.1999,-20.9172 19.9341,-32.1658 12.3162,-24.2338 19.0701,-51.2143 19.9733,-78.3664 0.3023,-8.8287 0.089,-17.6643 0.1547,-26.4961 -0.011,-28.2088 0.035,-56.418 -0.044,-84.6265 -0.4293,-26.1264 -6.1212,-52.2169 -17.1221,-75.9461 -5.1796,-11.1941 -11.3848,-21.9082 -18.3846,-32.0601 -13.3257,-19.1476 -30.2418,-35.79485 -49.6651,-48.72383 -9.1408,-6.09375 -18.7158,-11.55463 -28.6748,-16.19761 -19.6515,-9.10794 -40.8977,-14.74782 -62.4797,-16.58232 -6.9927,-0.61998 -14.0169,-0.85307 -21.036,-0.76046 z m 470.125,9.80859 c -56.9342,0 -113.8685,0 -170.8027,0 0,156.11003 0,312.22003 0,468.33013 59.1552,0 118.3105,0.013 177.4655,-0.03 26.2721,-0.3208 52.5414,-6.0988 76.2795,-17.4321 12.5415,-5.9637 24.4553,-13.2399 35.5577,-21.5771 16.8601,-12.7301 31.6017,-28.2562 43.4012,-45.7827 15.1684,-22.4153 25.4502,-48.1489 29.6633,-74.8965 1.8269,-11.3861 2.4903,-22.933 2.3732,-34.457 -0.011,-29.199 0.034,-58.3984 -0.042,-87.5972 -0.4079,-25.7072 -6.0499,-51.3871 -17.0032,-74.6782 -5.9643,-12.7157 -13.2923,-24.7859 -21.711,-36.0237 -14.0252,-18.585 -31.5087,-34.5393 -51.2752,-46.84245 -14.0776,-8.89002 -29.2518,-16.1028 -45.1926,-20.9565 -17.3622,-5.33624 -35.5239,-7.94307 -53.6765,-8.05078 -1.6789,-0.0174 -3.3581,-0.002 -5.0372,-0.006 z m -1132.30466,2 c 0,11.41992 0,22.83985 0,34.25977 57.47787,0 114.95573,0 172.4336,0 0,144.02346 0,288.04686 0,432.07036 11.86784,-1e-4 23.73567,0 35.60351,0 0,-144.0235 0,-288.0469 0,-432.07036 57.47852,0 114.95703,0 172.43555,0 0,-12.08659 0,-24.17318 0,-36.25977 -126.82422,0 -253.64844,0 -380.47266,0 0,0.66667 0,1.33334 0,2 z m 1891.69926,1.10352 c 60.4841,91.38991 120.9659,182.78141 181.4492,274.17191 0,63.6849 0,127.3698 0,191.0547 12.0866,0 24.1732,0 36.2597,0 0,-63.6849 0,-127.3698 0,-191.0547 60.9414,-92.4252 121.883,-184.8502 182.8243,-277.27543 -14.4089,0 -28.8177,0 -43.2266,0 -52.471,79.67623 -104.9456,159.35013 -157.418,239.02543 -52.9029,-79.6752 -105.8062,-159.3501 -158.709,-239.02543 -14.4114,0 -28.8229,0 -43.2343,0 0.6849,1.03451 1.3698,2.06901 2.0547,3.10352 z m -1226.2832,23.32226 c 5.9864,0.0209 12.0538,0.31463 17.9433,0.9668 1.9171,0.21363 4.0303,0.48265 6.0153,0.7846 15.6735,2.33378 30.9753,7.16852 45.1214,14.31305 3.4383,1.7384 7.0565,3.7388 10.4822,5.7581 10.3789,6.0144 20.1606,13.0981 28.8805,21.3485 9.5379,8.9953 17.8784,19.2511 24.7701,30.4032 4.2121,6.8811 8.2975,14.0625 11.5964,21.5057 7.1272,15.8732 11.3625,33.0114 12.6232,50.3589 0.2458,3.227 0.3989,6.5248 0.4559,9.6796 0.068,6.4683 0,12.9377 0.023,19.4066 -0.01,28.8462 0.035,57.6929 -0.045,86.5389 -0.073,3.9821 -0.3099,8.0115 -0.6834,12.0316 -0.1117,1.2016 -0.2321,2.4247 -0.3653,3.5231 -0.2235,1.8827 -0.4787,3.7383 -0.7725,5.6656 -0.4404,2.9143 -0.9946,5.904 -1.5916,8.6957 -3.5163,16.7641 -10.0389,32.8407 -18.8101,47.5347 -5.3144,8.9762 -11.4973,17.4422 -18.4772,25.1963 -5.2341,5.8138 -11.0256,11.3549 -17.1544,16.3218 -16.1318,13.183 -34.8209,23.3121 -54.8464,29.1397 -5.4282,1.5901 -11.0483,2.8851 -16.5539,3.8569 -6.0077,1.0594 -12.1898,1.7736 -18.207,2.1406 -5.9633,0.3518 -11.9321,0.3989 -17.9483,0.1401 -17.9421,-0.7488 -35.9038,-4.484 -52.6092,-11.2521 -10.359,-4.1691 -20.3073,-9.4049 -29.4384,-15.8461 -2.3273,-1.6128 -4.5726,-3.2533 -6.77207,-4.9561 -12.60031,-9.7315 -23.81953,-21.3425 -33.05733,-34.3749 -2.29851,-3.2222 -4.49639,-6.5164 -6.55951,-9.8945 -0.44128,-0.7289 -1.02244,-1.704 -1.49928,-2.5391 -5.31298,-9.3869 -9.64628,-19.3271 -12.92845,-29.6015 -0.56854,-1.7849 -1.16594,-3.7758 -1.68755,-5.6579 -2.48599,-8.8799 -4.13629,-18.0197 -5.03511,-27.1644 -0.15466,-1.5979 -0.29573,-3.4186 -0.40154,-5.1051 -0.10277,-1.6072 -0.18266,-3.1971 -0.23613,-4.7306 -0.27269,-8.0935 -0.10068,-16.1933 -0.14619,-24.2897 0.0138,-28.4277 -0.0378,-56.856 0.0438,-85.2834 0.29803,-18.1858 3.62534,-36.3491 10.12876,-53.349 0.6943,-1.8175 1.5005,-3.8076 2.30237,-5.6658 2.87698,-6.7168 6.32113,-13.3231 10.07458,-19.4983 4.90468,-8.0459 10.52046,-15.6554 16.73243,-22.7402 1.16815,-1.3253 2.50469,-2.7882 3.7767,-4.1309 2.26303,-2.3816 4.59462,-4.6882 6.96223,-6.8796 12.89292,-11.9836 27.85819,-21.6729 43.88959,-28.9057 8,-3.5788 16.3012,-6.4865 24.7972,-8.64046 1.1009,-0.27158 2.4513,-0.61179 3.656,-0.87753 5.4118,-1.24263 10.9308,-2.17158 16.3872,-2.81899 6.3596,-0.74822 12.7615,-1.08882 19.1639,-1.10817 z m 469.8847,9.83399 c 6.0259,0.0122 12.0517,0.33594 18.041,1.00196 0.577,0.068 1.4465,0.1733 2.1132,0.2607 1.7123,0.215 3.3176,0.4467 4.9711,0.7141 11.8756,1.9182 23.5348,5.3145 34.5172,10.0224 7.2805,3.1102 14.4104,6.9551 21.2204,11.1249 3.8002,2.3424 7.572,4.8572 11.1117,7.4638 1.7791,1.3005 3.7645,2.8322 5.4746,4.2051 11.9275,9.5707 22.3994,20.9421 30.9614,33.6132 2.0258,2.9741 3.9713,6.0734 5.7487,9.1133 1.5142,2.5958 3.0619,5.4299 4.4574,8.1941 2.8271,5.5822 5.3052,11.3402 7.4185,17.2298 0.4244,1.1856 0.912,2.6099 1.333,3.8956 0.8824,2.6931 1.717,5.5667 2.417,8.2099 2.4491,9.4177 3.9977,19.1775 4.5762,28.8261 0.5332,9.1994 0.2523,18.4186 0.3201,27.6274 -0.012,24.642 0.044,49.2847 -0.051,73.9263 -0.3498,18.0844 -3.8835,36.1295 -10.6743,52.9073 -1.4318,3.579 -3.0821,7.2238 -4.7474,10.5996 -8.0463,16.1829 -18.8644,30.9956 -31.9316,43.4883 -1.101,1.0387 -2.3641,2.2261 -3.5609,3.2901 -2.2062,1.9809 -4.5802,3.9812 -6.8356,5.7685 -10.6074,8.3845 -22.2355,15.4739 -34.514,21.1304 -8.175,3.708 -16.6964,6.6466 -25.4098,8.8012 -0.7601,0.1846 -1.6452,0.4037 -2.4248,0.5752 -8.8744,2.0427 -17.937,3.2554 -27.0342,3.6514 -0.77,0.027 -1.8438,0.068 -2.7312,0.091 -9.7131,0.17 -19.4283,0.036 -29.1423,0.081 -37.7212,0 -75.4424,0 -113.1636,0 0,-131.9375 0,-263.875 0,-395.81246 45.8463,0 91.6927,0 137.539,0 z m 648.127,395.81246 c -111.7702,0 -223.5404,0 -335.3106,0 55.8848,-121.2903 111.7696,-242.5807 167.6543,-363.8711 55.8854,121.2904 111.7709,242.5808 167.6563,363.8711 z" />
    </g>
  </g>
</svg>
